<svg xmlns="http://www.w3.org/2000/svg" viewBox="0 0 105.45 105.45"><defs><style>.cls-1{fill:#1a1a18;}.cls-1,.cls-2,.cls-3,.cls-4,.cls-5{fill-rule:evenodd;}.cls-2{fill:#e15109;}.cls-3{fill:#f9b000;}.cls-4{fill:#f07f00;}.cls-5{fill:#c1d910;}</style></defs><g id="Layer_2" data-name="Layer 2"><g id="Layer_1-2" data-name="Layer 1"><path class="cls-1" d="M52.72,0A52.73,52.73,0,1,1,0,52.72,52.73,52.73,0,0,1,52.72,0"/><path class="cls-2" d="M44.28,33h0a16.09,16.09,0,0,1,16,16V63.19a16.09,16.09,0,0,1-16,16h0a16.09,16.09,0,0,1-16-16V49.06a16.09,16.09,0,0,1,16-16"/><path class="cls-3" d="M61.17,33h0a16.09,16.09,0,0,1,16,16V63.19a16.09,16.09,0,0,1-16,16h0a16.09,16.09,0,0,1-16-16V49.06a16.09,16.09,0,0,1,16-16"/><path class="cls-4" d="M52.72,35.44a16.07,16.07,0,0,1,7.6,13.62V63.19a16.07,16.07,0,0,1-7.6,13.62,16.07,16.07,0,0,1-7.59-13.62V49.06a16.07,16.07,0,0,1,7.59-13.62"/><path class="cls-5" d="M56.3,28.71a3.54,3.54,0,0,1-6.69-1.63V22.29a4.25,4.25,0,0,1,8.11-1.78,4.39,4.39,0,0,1,.09,3.43c-.36,1.29-.68,2.11-1.05,3.41a8.06,8.06,0,0,1-.46,1.36"/></g></g></svg>