<svg xmlns="http://www.w3.org/2000/svg" viewBox="0 0 219.82 57.2"><defs><style>.cls-1{fill:#030304;}</style></defs><g id="Layer_2" data-name="Layer 2"><g id="Layer_1-2" data-name="Layer 1"><path class="cls-1" d="M16.65,39.29a11.94,11.94,0,0,0,6.17-1.62,11.56,11.56,0,0,0,4.34-4.46,12.82,12.82,0,0,0,1.59-6.38,12.88,12.88,0,0,0-1.59-6.38A11.92,11.92,0,0,0,22.82,16a11.77,11.77,0,0,0-6.17-1.64A11.88,11.88,0,0,0,6.08,20.45a12.88,12.88,0,0,0-1.59,6.38,12.82,12.82,0,0,0,1.59,6.38,11.49,11.49,0,0,0,4.37,4.46,12.1,12.1,0,0,0,6.2,1.62m0-29.17a16.69,16.69,0,0,1,8.48,2.19,16,16,0,0,1,6,6,16.91,16.91,0,0,1,2.18,8.5V40.91a2.2,2.2,0,0,1-.66,1.62,2.3,2.3,0,0,1-1.67.65,2.37,2.37,0,0,1-1.68-.62,2.18,2.18,0,0,1-.66-1.65V37.32a14.88,14.88,0,0,1-5.33,4.52,15.58,15.58,0,0,1-7.13,1.64,15.75,15.75,0,0,1-14-8.17A17.06,17.06,0,0,1,0,26.83a16.82,16.82,0,0,1,2.19-8.5,15.81,15.81,0,0,1,6-6A16.66,16.66,0,0,1,16.65,10.12Z"/><path class="cls-1" d="M58.94,39.29a12.13,12.13,0,0,0,6.2-1.62,11.56,11.56,0,0,0,4.37-4.46,12.82,12.82,0,0,0,1.59-6.38,12.88,12.88,0,0,0-1.59-6.38,11.88,11.88,0,0,0-10.57-6.13,11.78,11.78,0,0,0-10.51,6.13,12.88,12.88,0,0,0-1.59,6.38,13.39,13.39,0,0,0,.06,1.5.67.67,0,0,1,.06.3,12,12,0,0,0,3.92,7.67,11.64,11.64,0,0,0,8.06,3m0-29.17a16.66,16.66,0,0,1,8.47,2.19,15.88,15.88,0,0,1,6,6,16.82,16.82,0,0,1,2.19,8.5,17.06,17.06,0,0,1-2.13,8.48,15.75,15.75,0,0,1-14,8.17,15.55,15.55,0,0,1-7.13-1.64A14.88,14.88,0,0,1,47,37.32V54.86a2.26,2.26,0,0,1-2.34,2.34A2.14,2.14,0,0,1,43,56.54a2.33,2.33,0,0,1-.63-1.68V41.45a1.82,1.82,0,0,1-.06-.54V26.83a16.81,16.81,0,0,1,2.18-8.5,16,16,0,0,1,6-6A16.69,16.69,0,0,1,58.94,10.12Z"/><path class="cls-1" d="M101.28,39.29a12.08,12.08,0,0,0,6.2-1.62,11.43,11.43,0,0,0,4.37-4.46,12.82,12.82,0,0,0,1.59-6.38,12.88,12.88,0,0,0-1.59-6.38A11.78,11.78,0,0,0,107.48,16a12,12,0,0,0-16.71,4.49,12.88,12.88,0,0,0-1.59,6.38,13.39,13.39,0,0,0,.06,1.5.67.67,0,0,1,.06.3,12,12,0,0,0,3.93,7.67,11.62,11.62,0,0,0,8,3m0-29.17a16.69,16.69,0,0,1,8.48,2.19,16,16,0,0,1,6,6,16.81,16.81,0,0,1,2.18,8.5,17.05,17.05,0,0,1-2.12,8.48,15.75,15.75,0,0,1-14,8.17,15.61,15.61,0,0,1-7.13-1.64,15,15,0,0,1-5.33-4.52V54.86a2.31,2.31,0,0,1-.65,1.68A2.28,2.28,0,0,1,87,57.2a2.18,2.18,0,0,1-1.65-.66,2.33,2.33,0,0,1-.63-1.68V41.45a1.82,1.82,0,0,1-.06-.54V26.83a16.82,16.82,0,0,1,2.19-8.5,15.88,15.88,0,0,1,6-6A16.66,16.66,0,0,1,101.28,10.12Z"/><path class="cls-1" d="M141,10.12a14.92,14.92,0,0,1,12.16,5.75,1.84,1.84,0,0,1,.48,1.26,2.05,2.05,0,0,1-1,1.68,2,2,0,0,1-1.13.36,2.41,2.41,0,0,1-1.74-.9,12.34,12.34,0,0,0-4-3,11.38,11.38,0,0,0-4.8-1,11,11,0,0,0-5.87,1.58,10.66,10.66,0,0,0-4,4.46,14.53,14.53,0,0,0-1.41,6.47,13.44,13.44,0,0,0,1.5,6.38,11.12,11.12,0,0,0,4.19,4.46,11.77,11.77,0,0,0,6.17,1.62,11.33,11.33,0,0,0,7.73-2.57,2.49,2.49,0,0,1,1.62-.66,2,2,0,0,1,1.31.48,2.09,2.09,0,0,1,.84,1.61,1.71,1.71,0,0,1-.6,1.32,15.33,15.33,0,0,1-10.9,4,16.26,16.26,0,0,1-8.38-2.18,15.77,15.77,0,0,1-5.84-6,17.06,17.06,0,0,1-2.13-8.48,17.87,17.87,0,0,1,2-8.59,15.11,15.11,0,0,1,5.63-6A15.37,15.37,0,0,1,141,10.12"/><path class="cls-1" d="M177.59,14.32a12.1,12.1,0,0,0-6.2,1.61A11.63,11.63,0,0,0,167,20.39a13,13,0,0,0-1.59,6.44A12.82,12.82,0,0,0,167,33.21a11.49,11.49,0,0,0,4.37,4.46,12.73,12.73,0,0,0,12.43,0,11.35,11.35,0,0,0,4.31-4.46,13,13,0,0,0,1.56-6.38,13.2,13.2,0,0,0-1.56-6.44,11.48,11.48,0,0,0-4.31-4.46,12.05,12.05,0,0,0-6.23-1.61m0-4.2a16.85,16.85,0,0,1,8.51,2.16,15.8,15.8,0,0,1,6,6,17,17,0,0,1,2.18,8.56,17.09,17.09,0,0,1-2.15,8.54,15.65,15.65,0,0,1-6,6,18,18,0,0,1-17.07,0,15.51,15.51,0,0,1-6-6,17,17,0,0,1-2.16-8.54,17.12,17.12,0,0,1,2.16-8.56,15.39,15.39,0,0,1,6-6A17,17,0,0,1,177.59,10.12Z"/><path class="cls-1" d="M217.66,38.57a2,2,0,0,1,1.56.66,2.4,2.4,0,0,1,.6,1.68,2.11,2.11,0,0,1-.72,1.62,2.6,2.6,0,0,1-1.8.65H216a10.64,10.64,0,0,1-9.61-5.66,12.17,12.17,0,0,1-1.41-5.9v-16h-3.89a2.07,2.07,0,0,1-1.53-.57,1.91,1.91,0,0,1-.57-1.4,2,2,0,0,1,.57-1.47,2.07,2.07,0,0,1,1.53-.57H205V2.34a2.33,2.33,0,0,1,.63-1.68A2.18,2.18,0,0,1,207.3,0,2.28,2.28,0,0,1,209,.66a2.27,2.27,0,0,1,.65,1.68v9.28h6.77a2.07,2.07,0,0,1,1.53.57,2,2,0,0,1,.57,1.47,1.91,1.91,0,0,1-.57,1.4,2.07,2.07,0,0,1-1.53.57h-6.77v16a7.1,7.1,0,0,0,1.8,5A6,6,0,0,0,216,38.57Z"/></g></g></svg>